# xmcd CD database file
#
# Track frame offsets:
#	150
#	15150
#	27850
#	40800
#	53175
#	73525
#	87850
#	97425
#	106237
#	121062
#	139600
#	152162
#	166312
#	175962
#	185962
#
# Disc length: 2619 seconds
#
# Revision: 1
# Processed by: cddbd v1.5.2PL0 Copyright (c) Steve Scherf et al.
# Submitted via: CDex 1.70beta2
#
DISCID=c30a390f
DTITLE=Antonio Adolfo and Brazuca - Antonio Adolfo and Brazuca (No.1)
DYEAR=1970
DGENRE=Samba
TTITLE0=Juliana (Antonio Adolfo-Tiberio Gaspar)
TTITLE1=Futilirama (Fernando Leporace-M.Rocha)
TTITLE2=Moça (Antonio Adolfo-Tiberio Gaspar)
TTITLE3=Dois Tempos (Antonio Adolfo-Tiberio Gaspar)
TTITLE4=Voo De Apolo (Antonio Adolfo-Tiberio Gaspar)
TTITLE5=Porque Hoje E Domingo (Antonio Adolfo-Tiberio Gaspar)
TTITLE6=Maria Aparecida (Luiz Clàudio-L.F.Fonseca)
TTITLE7=Psiu (Antonio Adolfo-Tiberio Gaspar)
TTITLE8=A Cidade E Eu (Antonio Adolfo-Tiberio Gaspar)
TTITLE9=Pelas Ruas Do Meu Bairro (Luiz Clàudio-L.F.Fonseca)
TTITLE10=Teletema (Antonio Adolfo-Tiberio Gaspar)
TTITLE11=Gloria, Glorinha (Antonio Adolfo-Tiberio Gaspar)
TTITLE12=O Baile Do Clube (Antonio Adolfo-Tiberio Gaspar)
TTITLE13=Ao Redor (Antonio Adolfo-Tiberio Gaspar)
TTITLE14=M.G. 8-80-88 (Antonio Adolfo-Tiberio Gaspar)
EXTD=YEAR: 1970
EXTT0=
EXTT1=
EXTT2=
EXTT3=
EXTT4=
EXTT5=
EXTT6=
EXTT7=
EXTT8=
EXTT9=
EXTT10=
EXTT11=
EXTT12=
EXTT13=
EXTT14=
PLAYORDER=
